<svg width="17" height="16" viewBox="0 0 17 16" fill="none" xmlns="http://www.w3.org/2000/svg">
<g clip-path="url(#clip0_51_1117)">
<path d="M15.0656 0.678076C14.3813 -0.00629884 13.275 -0.00629884 12.5906 0.678076L11.65 1.61558L14.7094 4.67495L15.65 3.73433C16.3344 3.04995 16.3344 1.9437 15.65 1.25933L15.0656 0.678076ZM5.71562 7.55308C5.525 7.7437 5.37812 7.97808 5.29375 8.23745L4.36875 11.0125C4.27813 11.2812 4.35 11.5781 4.55 11.7812C4.75 11.9843 5.04688 12.0531 5.31875 11.9625L8.09375 11.0375C8.35 10.9531 8.58437 10.8062 8.77812 10.6156L14.0063 5.38433L10.9438 2.32183L5.71562 7.55308ZM3.32812 1.99995C1.67188 1.99995 0.328125 3.3437 0.328125 4.99995V13C0.328125 14.6562 1.67188 16 3.32812 16H11.3281C12.9844 16 14.3281 14.6562 14.3281 13V9.99995C14.3281 9.44683 13.8813 8.99995 13.3281 8.99995C12.775 8.99995 12.3281 9.44683 12.3281 9.99995V13C12.3281 13.5531 11.8813 14 11.3281 14H3.32812C2.775 14 2.32812 13.5531 2.32812 13V4.99995C2.32812 4.44683 2.775 3.99995 3.32812 3.99995H6.32812C6.88125 3.99995 7.32812 3.55308 7.32812 2.99995C7.32812 2.44683 6.88125 1.99995 6.32812 1.99995H3.32812Z" fill="black"/>
</g>
<defs>
<clipPath id="clip0_51_1117">
<rect width="16" height="16" fill="white" transform="translate(0.328125)"/>
</clipPath>
</defs>
</svg>
