<svg width="11" height="10" viewBox="0 0 11 10" fill="none" xmlns="http://www.w3.org/2000/svg">
<path d="M9.76914 1.70615C10.1598 1.31553 10.1598 0.681152 9.76914 0.290527C9.37852 -0.100098 8.74414 -0.100098 8.35352 0.290527L5.06289 3.58428L1.76914 0.293652C1.37852 -0.0969727 0.744141 -0.0969727 0.353516 0.293652C-0.0371094 0.684277 -0.0371094 1.31865 0.353516 1.70928L3.64727 4.9999L0.356641 8.29365C-0.0339843 8.68428 -0.0339843 9.31865 0.356641 9.70928C0.747266 10.0999 1.38164 10.0999 1.77227 9.70928L5.06289 6.41553L8.35664 9.70615C8.74727 10.0968 9.38164 10.0968 9.77227 9.70615C10.1629 9.31553 10.1629 8.68115 9.77227 8.29053L6.47852 4.9999L9.76914 1.70615Z" fill="white"/>
</svg>
