<svg width="18" height="28" viewBox="0 0 18 28" fill="none" xmlns="http://www.w3.org/2000/svg">
<g clip-path="url(#clip0_51_1029)">
<path d="M10.25 6.625C10.25 5.93359 9.69141 5.375 9 5.375C8.30859 5.375 7.75 5.93359 7.75 6.625V12.25H2.125C1.43359 12.25 0.875 12.8086 0.875 13.5C0.875 14.1914 1.43359 14.75 2.125 14.75H7.75V20.375C7.75 21.0664 8.30859 21.625 9 21.625C9.69141 21.625 10.25 21.0664 10.25 20.375V14.75H15.875C16.5664 14.75 17.125 14.1914 17.125 13.5C17.125 12.8086 16.5664 12.25 15.875 12.25H10.25V6.625Z" fill="white"/>
</g>
<defs>
<clipPath id="clip0_51_1029">
<path d="M0.25 3.5H17.75V23.5H0.25V3.5Z" fill="white"/>
</clipPath>
</defs>
</svg>
