<svg width="20" height="28" viewBox="0 0 20 28" fill="none" xmlns="http://www.w3.org/2000/svg">
<g clip-path="url(#clip0_51_1034)">
<path d="M15.7734 4.84373C16.2422 4.64841 16.7773 4.75779 17.1367 5.11326L19.6367 7.61326C19.8711 7.84763 20.0039 8.16404 20.0039 8.49607C20.0039 8.8281 19.8711 9.14451 19.6367 9.37888L17.1367 11.8789C16.7773 12.2383 16.2422 12.3437 15.7734 12.1484C15.3047 11.9531 15 11.5 15 10.9922V9.74998H13.75C13.3555 9.74998 12.9844 9.93357 12.75 10.25L11.0938 12.457L9.53125 10.375L10.75 8.74998C11.457 7.80466 12.5703 7.24998 13.75 7.24998H15V5.99998C15 5.49607 15.3047 5.03904 15.7734 4.84373ZM6.40625 14.5429L7.96875 16.625L6.75 18.25C6.04297 19.1953 4.92969 19.75 3.75 19.75H1.25C0.558594 19.75 0 19.1914 0 18.5C0 17.8086 0.558594 17.25 1.25 17.25H3.75C4.14453 17.25 4.51562 17.0664 4.75 16.75L6.40625 14.5429ZM17.1328 21.8867C16.7734 22.2461 16.2383 22.3515 15.7695 22.1562C15.3008 21.9609 14.9961 21.5078 14.9961 21V19.75H13.75C12.5703 19.75 11.457 19.1953 10.75 18.25L4.75 10.25C4.51562 9.93357 4.14453 9.74998 3.75 9.74998H1.25C0.558594 9.74998 0 9.19138 0 8.49998C0 7.80857 0.558594 7.24998 1.25 7.24998H3.75C4.92969 7.24998 6.04297 7.80466 6.75 8.74998L12.75 16.75C12.9844 17.0664 13.3555 17.25 13.75 17.25H15V16C15 15.4961 15.3047 15.039 15.7734 14.8437C16.2422 14.6484 16.7773 14.7578 17.1367 15.1133L19.6367 17.6133C19.8711 17.8476 20.0039 18.164 20.0039 18.4961C20.0039 18.8281 19.8711 19.1445 19.6367 19.3789L17.1367 21.8789L17.1328 21.8867Z" fill="white"/>
</g>
<defs>
<clipPath id="clip0_51_1034">
<path d="M0 3.5H20V23.5H0V3.5Z" fill="white"/>
</clipPath>
</defs>
</svg>
