<svg width="18" height="16" viewBox="0 0 18 16" fill="none" xmlns="http://www.w3.org/2000/svg">
<path d="M9.73165 0.5625C9.56602 0.21875 9.21602 0 8.83165 0C8.44727 0 8.1004 0.21875 7.93165 0.5625L5.92227 4.69688L1.43477 5.35938C1.05977 5.41563 0.747272 5.67812 0.631647 6.0375C0.516022 6.39687 0.609772 6.79375 0.878522 7.05937L4.13477 10.2812L3.36602 14.8344C3.30352 15.2094 3.45977 15.5906 3.76915 15.8125C4.07852 16.0344 4.4879 16.0625 4.8254 15.8844L8.83477 13.7437L12.8441 15.8844C13.1816 16.0625 13.591 16.0375 13.9004 15.8125C14.2098 15.5875 14.366 15.2094 14.3035 14.8344L13.5316 10.2812L16.7879 7.05937C17.0566 6.79375 17.1535 6.39687 17.0348 6.0375C16.916 5.67812 16.6066 5.41563 16.2316 5.35938L11.741 4.69688L9.73165 0.5625Z" fill="white"/>
</svg>
