<svg width="19" height="16" viewBox="0 0 19 16" fill="none" xmlns="http://www.w3.org/2000/svg">
<g clip-path="url(#clip0_51_1463)">
<path d="M9.65336 0C9.94086 0 10.2034 0.1625 10.3284 0.421875L12.4721 4.8375L17.2596 5.54375C17.5409 5.58437 17.7752 5.78125 17.8627 6.05312C17.9502 6.325 17.8784 6.61875 17.6784 6.81875L14.2065 10.2625L15.0252 15.125C15.0721 15.4062 14.9565 15.6906 14.7252 15.8594C14.494 16.0281 14.1846 16.0469 13.9346 15.9125L9.65336 13.625L5.37523 15.9094C5.12211 16.0438 4.81586 16.025 4.58461 15.8562C4.35336 15.6875 4.23461 15.4031 4.28148 15.1219L5.10023 10.2594L1.62836 6.81875C1.42523 6.61875 1.35648 6.32188 1.44398 6.05312C1.53148 5.78437 1.76586 5.5875 2.04711 5.54375L6.83461 4.8375L8.97836 0.421875C9.10648 0.1625 9.36586 0 9.65336 0ZM9.65336 2.46875L8.01273 5.85C7.90336 6.07188 7.69398 6.22813 7.44711 6.26562L3.75023 6.80937L6.43461 9.46875C6.60648 9.64062 6.68773 9.88437 6.64711 10.125L6.01273 13.8656L9.30023 12.1094C9.52211 11.9906 9.78773 11.9906 10.0065 12.1094L13.294 13.8656L12.6627 10.1281C12.6221 9.8875 12.7002 9.64375 12.8752 9.47188L15.5596 6.8125L11.8627 6.26562C11.619 6.22813 11.4065 6.075 11.2971 5.85L9.65336 2.46875Z" fill="#9CA3AF"/>
</g>
<defs>
<clipPath id="clip0_51_1463">
<rect width="18" height="16" fill="white" transform="translate(0.65625)"/>
</clipPath>
</defs>
</svg>
