<svg width="19" height="26" viewBox="0 0 19 26" fill="none" xmlns="http://www.w3.org/2000/svg">
<g clip-path="url(#clip0_51_303)">
<path d="M5.568 18.7818L4.48167 17.6954C4.18285 17.3966 4.07738 16.9642 4.21097 16.5634C4.31644 16.2505 4.45707 15.8427 4.62582 15.3751H0.906284C0.60394 15.3751 0.32269 15.2134 0.171518 14.9497C0.0203466 14.6861 0.0238622 14.3626 0.17855 14.1025L2.02425 10.9911C2.48128 10.2212 3.30746 9.75012 4.20042 9.75012H7.09378C7.17816 9.60949 7.26253 9.47941 7.34691 9.35285C10.2262 5.10598 14.5153 4.96535 17.0746 5.43645C17.4825 5.51027 17.7989 5.8302 17.8762 6.23801C18.3473 8.8009 18.2032 13.0864 13.9598 15.9657C13.8368 16.0501 13.7032 16.1345 13.5625 16.2189V19.1122C13.5625 20.0052 13.0914 20.8349 12.3215 21.2884L9.21019 23.1341C8.95004 23.2888 8.6266 23.2923 8.36293 23.1411C8.09925 22.99 7.93753 22.7122 7.93753 22.4064V18.6376C7.44183 18.8099 7.00941 18.9505 6.68246 19.056C6.28871 19.1825 5.8598 19.0736 5.56449 18.7818H5.568ZM13.5625 11.1564C13.9355 11.1564 14.2932 11.0082 14.5569 10.7445C14.8206 10.4808 14.9688 10.1231 14.9688 9.75012C14.9688 9.37716 14.8206 9.01947 14.5569 8.75575C14.2932 8.49203 13.9355 8.34387 13.5625 8.34387C13.1896 8.34387 12.8319 8.49203 12.5682 8.75575C12.3044 9.01947 12.1563 9.37716 12.1563 9.75012C12.1563 10.1231 12.3044 10.4808 12.5682 10.7445C12.8319 11.0082 13.1896 11.1564 13.5625 11.1564Z" fill="#552583"/>
</g>
<defs>
<clipPath id="clip0_51_303">
<path d="M0.0625 5.25H18.0625V23.25H0.0625V5.25Z" fill="white"/>
</clipPath>
</defs>
</svg>
