<svg width="65" height="64" viewBox="0 0 65 64" fill="none" xmlns="http://www.w3.org/2000/svg">
<path d="M0.328125 32C0.328125 14.3269 14.655 0 32.3281 0V0C50.0012 0 64.3281 14.3269 64.3281 32V32C64.3281 49.6731 50.0012 64 32.3281 64V64C14.655 64 0.328125 49.6731 0.328125 32V32Z" fill="#FDB927"/>
<g clip-path="url(#clip0_51_282)">
<path d="M24.0781 22C25.0727 22 26.0265 22.3951 26.7298 23.0983C27.433 23.8016 27.8281 24.7554 27.8281 25.75C27.8281 26.7446 27.433 27.6984 26.7298 28.4017C26.0265 29.1049 25.0727 29.5 24.0781 29.5C23.0836 29.5 22.1297 29.1049 21.4265 28.4017C20.7232 27.6984 20.3281 26.7446 20.3281 25.75C20.3281 24.7554 20.7232 23.8016 21.4265 23.0983C22.1297 22.3951 23.0836 22 24.0781 22ZM41.3281 22C42.3227 22 43.2765 22.3951 43.9798 23.0983C44.683 23.8016 45.0781 24.7554 45.0781 25.75C45.0781 26.7446 44.683 27.6984 43.9798 28.4017C43.2765 29.1049 42.3227 29.5 41.3281 29.5C40.3336 29.5 39.3797 29.1049 38.6765 28.4017C37.9732 27.6984 37.5781 26.7446 37.5781 25.75C37.5781 24.7554 37.9732 23.8016 38.6765 23.0983C39.3797 22.3951 40.3336 22 41.3281 22ZM17.3281 36.0016C17.3281 33.2406 19.5687 31 22.3297 31H24.3312C25.0766 31 25.7844 31.1641 26.4219 31.4547C26.3609 31.7922 26.3328 32.1438 26.3328 32.5C26.3328 34.2906 27.1203 35.8984 28.3625 37C28.3531 37 28.3438 37 28.3297 37H18.3266C17.7781 37 17.3281 36.55 17.3281 36.0016ZM36.3266 37C36.3172 37 36.3078 37 36.2938 37C37.5406 35.8984 38.3234 34.2906 38.3234 32.5C38.3234 32.1438 38.2906 31.7969 38.2344 31.4547C38.8719 31.1594 39.5797 31 40.325 31H42.3266C45.0875 31 47.3281 33.2406 47.3281 36.0016C47.3281 36.5547 46.8781 37 46.3297 37H36.3266ZM27.8281 32.5C27.8281 31.3065 28.3022 30.1619 29.1461 29.318C29.9901 28.4741 31.1347 28 32.3281 28C33.5216 28 34.6662 28.4741 35.5101 29.318C36.354 30.1619 36.8281 31.3065 36.8281 32.5C36.8281 33.6935 36.354 34.8381 35.5101 35.682C34.6662 36.5259 33.5216 37 32.3281 37C31.1347 37 29.9901 36.5259 29.1461 35.682C28.3022 34.8381 27.8281 33.6935 27.8281 32.5ZM23.3281 44.7484C23.3281 41.2984 26.1266 38.5 29.5766 38.5H35.0797C38.5297 38.5 41.3281 41.2984 41.3281 44.7484C41.3281 45.4375 40.7703 46 40.0766 46H24.5797C23.8906 46 23.3281 45.4422 23.3281 44.7484Z" fill="#552583"/>
</g>
<defs>
<clipPath id="clip0_51_282">
<path d="M17.3281 22H47.3281V46H17.3281V22Z" fill="white"/>
</clipPath>
</defs>
</svg>
