<svg width="28" height="24" viewBox="0 0 28 24" fill="none" xmlns="http://www.w3.org/2000/svg">
<path d="M12.8984 0.243799C13.5969 -0.0796387 14.4031 -0.0796387 15.1016 0.243799L25.3484 4.97817C25.7469 5.16099 26 5.55942 26 6.00005C26 6.44067 25.7469 6.83911 25.3484 7.02192L15.1016 11.7563C14.4031 12.0797 13.5969 12.0797 12.8984 11.7563L2.65156 7.02192C2.25313 6.83442 2 6.43599 2 6.00005C2 5.56411 2.25313 5.16099 2.65156 4.97817L12.8984 0.243799ZM22.8547 9.82505L25.3484 10.9782C25.7469 11.161 26 11.5594 26 12C26 12.4407 25.7469 12.8391 25.3484 13.0219L15.1016 17.7563C14.4031 18.0797 13.5969 18.0797 12.8984 17.7563L2.65156 13.0219C2.25313 12.8344 2 12.436 2 12C2 11.5641 2.25313 11.161 2.65156 10.9782L5.14531 9.82505L12.2703 13.1157C13.3672 13.6219 14.6328 13.6219 15.7297 13.1157L22.8547 9.82505ZM15.7297 19.1157L22.8547 15.825L25.3484 16.9782C25.7469 17.161 26 17.5594 26 18C26 18.4407 25.7469 18.8391 25.3484 19.0219L15.1016 23.7563C14.4031 24.0797 13.5969 24.0797 12.8984 23.7563L2.65156 19.0219C2.25313 18.8344 2 18.436 2 18C2 17.5641 2.25313 17.161 2.65156 16.9782L5.14531 15.825L12.2703 19.1157C13.3672 19.6219 14.6328 19.6219 15.7297 19.1157Z" fill="#552583"/>
</svg>
