<svg width="65" height="64" viewBox="0 0 65 64" fill="none" xmlns="http://www.w3.org/2000/svg">
<path d="M0.65625 32C0.65625 14.3269 14.9831 0 32.6562 0V0C50.3294 0 64.6562 14.3269 64.6562 32V32C64.6562 49.6731 50.3294 64 32.6562 64V64C14.9831 64 0.65625 49.6731 0.65625 32V32Z" fill="#FDB927"/>
<g clip-path="url(#clip0_51_276)">
<path d="M29.2812 22C30.7297 22 31.9062 23.1766 31.9062 24.625V43.375C31.9062 44.8234 30.7297 46 29.2812 46C27.9266 46 26.8109 44.9734 26.6703 43.6516C26.4266 43.7172 26.1687 43.75 25.9062 43.75C24.2516 43.75 22.9062 42.4047 22.9062 40.75C22.9062 40.4031 22.9672 40.0656 23.075 39.7562C21.6594 39.2219 20.6562 37.8531 20.6562 36.25C20.6562 34.7547 21.5328 33.4609 22.8031 32.8609C22.3953 32.35 22.1562 31.7031 22.1562 31C22.1562 29.5609 23.1688 28.3609 24.5188 28.0656C24.4438 27.8078 24.4062 27.5312 24.4062 27.25C24.4062 25.8484 25.3719 24.6672 26.6703 24.3391C26.8109 23.0266 27.9266 22 29.2812 22ZM36.0312 22C37.3859 22 38.4969 23.0266 38.6422 24.3391C39.9453 24.6672 40.9062 25.8438 40.9062 27.25C40.9062 27.5312 40.8687 27.8078 40.7938 28.0656C42.1438 28.3562 43.1562 29.5609 43.1562 31C43.1562 31.7031 42.9172 32.35 42.5094 32.8609C43.7797 33.4609 44.6562 34.7547 44.6562 36.25C44.6562 37.8531 43.6531 39.2219 42.2375 39.7562C42.3453 40.0656 42.4062 40.4031 42.4062 40.75C42.4062 42.4047 41.0609 43.75 39.4062 43.75C39.1437 43.75 38.8859 43.7172 38.6422 43.6516C38.5016 44.9734 37.3859 46 36.0312 46C34.5828 46 33.4062 44.8234 33.4062 43.375V24.625C33.4062 23.1766 34.5828 22 36.0312 22Z" fill="#552583"/>
</g>
<defs>
<clipPath id="clip0_51_276">
<path d="M20.6562 22H44.6562V46H20.6562V22Z" fill="white"/>
</clipPath>
</defs>
</svg>
