<svg width="15" height="4" viewBox="0 0 15 4" fill="none" xmlns="http://www.w3.org/2000/svg">
<path d="M0.90625 2C0.90625 1.53587 1.09062 1.09075 1.41881 0.762563C1.747 0.434375 2.19212 0.25 2.65625 0.25C3.12038 0.25 3.5655 0.434375 3.89369 0.762563C4.22188 1.09075 4.40625 1.53587 4.40625 2C4.40625 2.46413 4.22188 2.90925 3.89369 3.23744C3.5655 3.56563 3.12038 3.75 2.65625 3.75C2.19212 3.75 1.747 3.56563 1.41881 3.23744C1.09062 2.90925 0.90625 2.46413 0.90625 2ZM5.90625 2C5.90625 1.53587 6.09062 1.09075 6.41881 0.762563C6.747 0.434375 7.19212 0.25 7.65625 0.25C8.12038 0.25 8.5655 0.434375 8.89369 0.762563C9.22188 1.09075 9.40625 1.53587 9.40625 2C9.40625 2.46413 9.22188 2.90925 8.89369 3.23744C8.5655 3.56563 8.12038 3.75 7.65625 3.75C7.19212 3.75 6.747 3.56563 6.41881 3.23744C6.09062 2.90925 5.90625 2.46413 5.90625 2ZM12.6562 0.25C13.1204 0.25 13.5655 0.434375 13.8937 0.762563C14.2219 1.09075 14.4062 1.53587 14.4062 2C14.4062 2.46413 14.2219 2.90925 13.8937 3.23744C13.5655 3.56563 13.1204 3.75 12.6562 3.75C12.1921 3.75 11.747 3.56563 11.4188 3.23744C11.0906 2.90925 10.9062 2.46413 10.9062 2C10.9062 1.53587 11.0906 1.09075 11.4188 0.762563C11.747 0.434375 12.1921 0.25 12.6562 0.25Z" fill="#9CA3AF"/>
</svg>
