<svg width="19" height="16" viewBox="0 0 19 16" fill="none" xmlns="http://www.w3.org/2000/svg">
<g clip-path="url(#clip0_51_1459)">
<path d="M10.2312 0.5625C10.0655 0.21875 9.71553 0 9.33116 0C8.94678 0 8.59991 0.21875 8.43116 0.5625L6.42178 4.69688L1.93428 5.35938C1.55928 5.41563 1.24678 5.67812 1.13116 6.0375C1.01553 6.39687 1.10928 6.79375 1.37803 7.05937L4.63428 10.2812L3.86553 14.8344C3.80303 15.2094 3.95928 15.5906 4.26866 15.8125C4.57803 16.0344 4.98741 16.0625 5.32491 15.8844L9.33428 13.7437L13.3437 15.8844C13.6812 16.0625 14.0905 16.0375 14.3999 15.8125C14.7093 15.5875 14.8655 15.2094 14.803 14.8344L14.0312 10.2812L17.2874 7.05937C17.5562 6.79375 17.653 6.39687 17.5343 6.0375C17.4155 5.67812 17.1062 5.41563 16.7312 5.35938L12.2405 4.69688L10.2312 0.5625Z" fill="#FDB927"/>
</g>
<defs>
<clipPath id="clip0_51_1459">
<rect width="18" height="16" fill="white" transform="translate(0.328125)"/>
</clipPath>
</defs>
</svg>
