<svg width="20" height="21" viewBox="0 0 20 21" fill="none" xmlns="http://www.w3.org/2000/svg">
<g clip-path="url(#clip0_51_422)">
<path d="M17.9441 6.42638C17.9568 6.60403 17.9568 6.78173 17.9568 6.95938C17.9568 12.3781 13.8325 18.6218 6.29441 18.6218C3.97207 18.6218 1.81473 17.9492 0 16.7817C0.329961 16.8198 0.647187 16.8325 0.989844 16.8325C2.90605 16.8325 4.67004 16.1853 6.07867 15.0812C4.27664 15.0431 2.76648 13.8629 2.24617 12.2386C2.5 12.2766 2.75379 12.302 3.02031 12.302C3.38832 12.302 3.75637 12.2512 4.09898 12.1624C2.22082 11.7817 0.812148 10.132 0.812148 8.13958V8.08884C1.35781 8.39341 1.99238 8.58376 2.66492 8.60911C1.56086 7.87306 0.837539 6.61673 0.837539 5.1954C0.837539 4.43399 1.04055 3.73603 1.3959 3.12688C3.41367 5.61419 6.44668 7.23853 9.84766 7.41622C9.78422 7.11165 9.74613 6.79442 9.74613 6.47716C9.74613 4.21825 11.5736 2.37817 13.8451 2.37817C15.0253 2.37817 16.0913 2.8731 16.84 3.67259C17.7664 3.49493 18.6547 3.15228 19.4416 2.68274C19.137 3.63454 18.4898 4.43403 17.6395 4.94161C18.4644 4.85282 19.2639 4.62435 19.9999 4.30712C19.4416 5.11927 18.7436 5.84259 17.9441 6.42638Z" fill="#E9D5FF"/>
</g>
<defs>
<clipPath id="clip0_51_422">
<rect width="20" height="20" fill="white" transform="translate(0 0.5)"/>
</clipPath>
</defs>
</svg>
